<?xml version="1.0" standalone="no"?>
<!DOCTYPE svg PUBLIC "-//W3C//DTD SVG 20010904//EN"
 "http://www.w3.org/TR/2001/REC-SVG-20010904/DTD/svg10.dtd">
<svg version="1.0" xmlns="http://www.w3.org/2000/svg"
 width="1080.000000pt" height="1080.000000pt" viewBox="0 0 1080.000000 1080.000000"
 preserveAspectRatio="xMidYMid meet">
<metadata>
Created by potrace 1.14, written by Peter Selinger 2001-2017
</metadata>
<g transform="translate(0.000000,1080.000000) scale(0.100000,-0.100000)"
fill="#000000" stroke="none">
<path d="M5310 9149 c-764 -28 -1553 -247 -2245 -623 -648 -352 -1226 -847
-1671 -1431 -431 -566 -735 -1190 -913 -1875 -99 -383 -161 -830 -161 -1167
l0 -143 193 0 c107 0 309 3 450 7 l256 6 0 129 c1 310 62 705 163 1058 164
571 445 1106 823 1565 526 638 1225 1117 2000 1368 449 146 855 209 1340 209
485 0 891 -63 1340 -209 758 -246 1458 -722 1974 -1343 611 -734 948 -1600
1002 -2573 6 -111 12 -203 13 -204 1 -1 206 -5 455 -9 l453 -7 -6 164 c-4 90
-14 238 -22 329 -141 1567 -994 2998 -2309 3875 -232 154 -337 216 -565 331
-797 401 -1632 577 -2570 543z"/>
<path d="M5350 7959 c-47 -17 -103 -37 -125 -44 -22 -8 -65 -23 -95 -35 -30
-12 -68 -26 -85 -30 -35 -10 -112 -37 -140 -49 -11 -5 -49 -19 -85 -31 -36
-12 -74 -26 -85 -31 -20 -8 -41 -16 -180 -64 -38 -13 -115 -40 -170 -60 -55
-21 -118 -43 -140 -50 -22 -8 -65 -23 -95 -35 -30 -11 -89 -32 -130 -46 -41
-13 -84 -28 -95 -33 -11 -5 -49 -19 -85 -31 -36 -12 -74 -26 -85 -31 -24 -10
-97 -36 -140 -49 -16 -6 -39 -14 -50 -19 -11 -5 -49 -19 -85 -31 -36 -12 -74
-26 -85 -31 -30 -13 -106 -39 -140 -48 -31 -9 -55 -18 -138 -54 -39 -17 -49
-27 -59 -58 -15 -52 3 -94 53 -120 21 -10 43 -19 50 -19 6 0 25 -6 42 -14 18
-8 66 -26 107 -40 41 -14 100 -35 130 -46 30 -12 73 -27 95 -35 22 -7 85 -29
140 -50 55 -20 132 -47 170 -60 167 -58 181 -63 225 -85 22 -11 27 -496 6
-543 -39 -84 -61 -149 -99 -287 -9 -30 -23 -123 -33 -205 -16 -143 -16 -159 0
-300 16 -147 36 -251 62 -330 7 -22 15 -55 19 -72 4 -18 11 -35 16 -38 5 -4 9
-13 9 -21 0 -35 109 -253 176 -351 67 -98 146 -188 223 -253 35 -30 69 -60 75
-65 6 -6 50 -37 99 -68 l87 -58 0 -382 c0 -223 4 -397 10 -418 6 -23 19 -40
36 -47 18 -9 203 -12 674 -12 l649 0 28 24 28 24 3 224 c3 193 5 225 19 236
12 9 73 12 220 12 l203 0 67 32 c73 34 163 112 189 162 51 101 54 119 54 357
0 164 3 230 13 242 11 15 74 44 150 67 39 12 105 67 131 109 49 76 53 207 11
288 -8 15 -15 33 -15 40 0 7 -6 27 -14 45 -15 35 -30 74 -67 173 -12 33 -28
74 -35 92 -8 17 -14 36 -14 42 0 10 -7 27 -44 114 -9 22 -26 100 -37 175 -11
76 -24 151 -29 167 -5 17 -20 66 -34 110 -13 44 -36 106 -50 139 -26 58 -26
60 -26 316 l0 258 33 12 c17 7 50 18 72 25 22 8 65 23 95 35 30 11 89 32 130
46 41 14 84 29 95 34 11 5 49 19 85 30 36 12 74 25 85 30 26 12 100 38 145 52
19 5 40 14 47 20 7 5 22 8 35 6 l23 -3 3 -208 c2 -206 2 -208 -24 -265 -56
-122 -98 -209 -127 -267 -31 -64 -40 -133 -18 -159 32 -39 73 -46 264 -46 191
0 222 5 257 40 44 44 16 131 -123 395 l-32 60 -5 315 c-4 230 -8 321 -18 337
-15 28 -48 45 -144 77 -112 38 -161 56 -183 66 -11 5 -54 20 -95 34 -41 14
-100 35 -130 47 -30 11 -68 24 -85 29 -16 5 -55 18 -85 29 -30 12 -89 33 -130
47 -41 14 -84 29 -95 34 -22 11 -94 36 -140 50 -16 6 -39 14 -50 19 -11 5 -49
19 -85 31 -36 11 -74 25 -85 30 -11 5 -54 20 -95 34 -41 14 -100 35 -130 46
-30 12 -73 27 -95 35 -22 7 -85 29 -140 50 -55 20 -131 47 -170 60 -139 48
-160 56 -180 64 -11 5 -49 19 -85 31 -36 12 -78 28 -95 35 -66 29 -115 27
-205 -6z m175 -188 c5 -4 46 -20 90 -34 44 -14 105 -35 135 -47 30 -12 73 -27
95 -35 22 -7 85 -29 140 -50 55 -20 132 -47 170 -60 139 -48 160 -56 180 -64
11 -5 49 -19 85 -31 36 -12 74 -26 85 -31 28 -12 105 -39 140 -49 17 -4 55
-18 85 -30 30 -12 69 -26 85 -31 17 -5 39 -13 50 -18 11 -5 54 -21 95 -35 41
-14 100 -35 130 -47 30 -11 69 -25 85 -29 17 -5 48 -16 70 -24 72 -27 180 -67
198 -73 10 -3 16 -10 14 -16 -3 -10 -106 -51 -192 -78 -16 -5 -39 -13 -50 -18
-11 -5 -49 -19 -85 -31 -36 -12 -74 -26 -85 -31 -11 -5 -33 -13 -50 -19 -16
-5 -75 -25 -130 -45 -55 -20 -116 -41 -135 -46 -19 -6 -48 -21 -65 -35 l-30
-24 -3 -145 c-2 -80 -8 -145 -13 -145 -4 0 -34 26 -67 58 -59 58 -216 192
-225 192 -3 0 -29 16 -59 35 -55 37 -203 111 -273 137 -207 78 -433 108 -675
89 -78 -6 -150 -15 -159 -20 -9 -5 -36 -12 -61 -16 -41 -6 -92 -22 -195 -59
-63 -23 -224 -107 -296 -156 -83 -56 -157 -117 -231 -192 -91 -90 -92 -89 -98
84 -6 174 1 164 -145 214 -49 17 -110 39 -135 48 -25 9 -58 21 -75 26 -16 6
-39 14 -50 19 -11 5 -54 21 -95 35 -41 14 -100 35 -130 47 -30 11 -68 24 -85
29 -16 4 -50 17 -75 28 l-45 20 48 21 c27 12 61 24 75 27 15 4 32 10 37 14 6
5 26 13 45 18 19 6 80 27 135 47 55 20 114 40 130 45 17 5 39 14 50 19 11 5
54 21 95 35 41 14 100 35 130 47 30 11 69 24 85 29 17 5 55 18 85 29 30 12 89
33 130 47 41 14 84 29 95 34 22 11 94 36 140 50 17 6 39 14 50 19 11 5 49 19
85 31 36 11 74 25 85 30 11 5 54 20 95 34 41 14 100 35 130 46 30 11 88 32
129 46 41 15 88 33 105 40 31 14 100 11 121 -5z m140 -1011 c269 -44 505 -159
700 -342 96 -90 225 -251 225 -281 0 -9 -81 -37 -160 -56 -218 -50 -480 -73
-900 -78 -276 -4 -396 -2 -540 11 -211 19 -388 41 -475 61 -33 8 -73 16 -90
20 -41 8 -95 37 -95 51 0 20 126 178 201 251 64 63 161 140 224 180 47 30 225
113 280 131 56 18 178 47 235 56 49 7 346 4 395 -4z m2123 -568 c2 -15 -2 -22
-12 -22 -11 0 -16 9 -16 26 0 31 23 28 28 -4z m-1078 -297 c39 -109 51 -159
70 -293 11 -78 27 -157 35 -176 8 -20 22 -52 30 -71 8 -20 15 -40 15 -46 0 -6
6 -25 14 -42 7 -18 37 -97 66 -177 28 -80 58 -160 66 -178 20 -47 27 -103 16
-133 -10 -24 -29 -35 -129 -73 -118 -45 -155 -62 -171 -79 -15 -17 -17 -50
-20 -296 -3 -335 -8 -350 -123 -419 -35 -21 -48 -22 -294 -22 -222 0 -261 -2
-285 -17 -50 -29 -54 -51 -60 -283 l-5 -215 -505 -3 c-466 -2 -506 -1 -517 15
-10 13 -13 106 -13 384 0 349 -1 367 -20 391 -11 14 -36 33 -57 43 -68 32
-197 121 -262 181 -69 64 -172 191 -214 264 -40 70 -107 210 -107 224 0 6 -4
16 -8 21 -10 11 -43 120 -66 215 -58 251 -42 571 40 787 20 51 39 54 131 24
220 -72 623 -112 1128 -111 540 0 928 44 1200 135 20 7 28 -2 45 -50z"/>
<path d="M4236 2242 c-24 -39 -365 -947 -358 -954 5 -5 53 -7 108 -6 l99 3 19
53 19 52 134 0 134 0 15 -37 c27 -70 23 -68 128 -71 79 -2 97 0 102 13 6 14
-337 917 -358 943 -12 14 -34 16 -42 4z m59 -555 c19 -64 35 -121 35 -127 0
-6 -31 -10 -75 -10 -41 0 -75 4 -75 8 0 4 16 55 35 112 19 57 35 113 35 124 0
33 8 14 45 -107z"/>
<path d="M7920 1823 c-91 -235 -175 -453 -187 -485 l-22 -59 86 3 86 3 20 53
20 52 167 0 167 0 20 -52 20 -53 87 -3 86 -3 -22 60 c-114 298 -354 911 -358
911 -3 0 -79 -192 -170 -427z m229 -134 c28 -80 51 -148 51 -152 0 -4 -49 -7
-110 -7 -60 0 -110 3 -110 8 0 21 106 310 112 304 3 -4 29 -73 57 -153z"/>
<path d="M5670 2228 c-119 -12 -210 -57 -283 -138 -149 -166 -165 -431 -38
-627 120 -186 390 -249 607 -142 195 97 293 374 214 604 -74 214 -262 328
-500 303z m154 -202 c50 -21 111 -80 137 -134 19 -39 23 -63 23 -142 0 -84 -3
-101 -26 -146 -53 -101 -145 -152 -254 -141 -141 15 -230 127 -229 292 1 123
54 218 148 264 50 25 150 28 201 7z"/>
<path d="M2725 2218 c-3 -7 -4 -220 -3 -473 l3 -460 100 0 100 0 3 235 3 235
112 -215 112 -215 92 -3 93 -3 102 206 103 206 5 -223 5 -223 100 0 100 0 0
470 0 470 -96 3 c-69 2 -99 -1 -106 -10 -6 -7 -70 -141 -143 -298 -73 -157
-139 -298 -148 -315 l-15 -30 -161 325 -161 325 -98 3 c-72 2 -99 -1 -102 -10z"/>
<path d="M4907 2213 c-4 -3 -7 -158 -7 -344 l0 -338 -23 -27 c-22 -25 -31 -28
-111 -32 l-87 -5 3 -91 3 -91 105 0 c127 1 189 24 248 91 63 70 65 82 69 457
3 186 2 349 -1 363 -6 23 -9 24 -100 24 -51 0 -96 -3 -99 -7z"/>
<path d="M6385 2208 c-3 -7 -4 -218 -3 -468 l3 -455 95 0 95 0 5 185 5 185 34
0 35 0 82 -179 c45 -98 87 -183 92 -188 5 -5 51 -7 103 -6 76 2 94 6 97 19 1
9 -35 99 -82 200 l-85 184 32 17 c87 44 131 125 131 239 -1 129 -50 203 -169
256 -33 14 -77 18 -252 21 -171 3 -214 1 -218 -10z m380 -192 c59 -25 74 -93
31 -143 -23 -26 -29 -28 -120 -31 l-96 -4 0 96 0 96 75 0 c43 0 90 -6 110 -14z"/>
<path d="M7160 1760 l0 -70 240 0 240 0 0 70 0 70 -240 0 -240 0 0 -70z"/>
</g>
</svg>
