<?xml version="1.0" standalone="no"?>
<!DOCTYPE svg PUBLIC "-//W3C//DTD SVG 20010904//EN"
 "http://www.w3.org/TR/2001/REC-SVG-20010904/DTD/svg10.dtd">
<svg version="1.0" xmlns="http://www.w3.org/2000/svg"
 width="980.000000pt" height="980.000000pt" viewBox="0 0 980.000000 980.000000"
 preserveAspectRatio="xMidYMid meet">
<metadata>
Created by potrace 1.14, written by Peter Selinger 2001-2017
</metadata>
<g transform="translate(0.000000,980.000000) scale(0.100000,-0.100000)"
fill="#000000" stroke="none">
<path d="M4698 9695 c-2 -2 -30 -5 -63 -6 -33 -1 -70 -6 -82 -10 -15 -5 -23
-5 -23 2 0 6 -5 7 -10 4 -11 -7 -35 -11 -120 -19 -25 -3 -45 -5 -45 -6 0 -1
-16 -3 -35 -6 -19 -2 -46 -6 -60 -10 -14 -3 -45 -8 -70 -11 -25 -3 -50 -9 -56
-14 -6 -5 -20 -7 -32 -4 -12 2 -22 1 -22 -3 0 -4 -8 -8 -17 -9 -25 -2 -59 -10
-120 -27 -29 -8 -53 -12 -53 -9 0 3 -7 -1 -17 -8 -9 -8 -19 -13 -22 -12 -8 4
-110 -25 -136 -38 -11 -5 -29 -11 -40 -14 -11 -2 -56 -18 -100 -34 -44 -17
-86 -31 -92 -31 -7 0 -13 -4 -13 -10 0 -5 -7 -10 -16 -10 -8 0 -39 -11 -67
-24 -56 -26 -87 -39 -100 -40 -4 -1 -12 -8 -17 -16 -5 -8 -10 -11 -10 -6 0 5
-7 3 -15 -4 -8 -7 -15 -9 -15 -4 0 5 -4 4 -8 -1 -4 -6 -49 -32 -101 -58 -51
-26 -100 -55 -108 -63 -8 -8 -19 -12 -24 -9 -5 4 -9 2 -9 -4 0 -5 -10 -13 -22
-17 -12 -3 -26 -10 -32 -15 -30 -25 -146 -97 -146 -91 0 4 -4 2 -8 -4 -4 -6
-41 -35 -82 -64 -41 -30 -83 -63 -92 -74 -10 -10 -18 -16 -18 -12 0 4 -26 -14
-57 -41 -32 -26 -68 -57 -82 -68 -13 -11 -37 -32 -53 -47 -16 -16 -33 -28 -39
-28 -6 0 -7 -4 -4 -10 3 -5 2 -10 -2 -10 -9 0 -203 -186 -203 -194 0 -3 -24
-30 -54 -61 -30 -30 -52 -55 -50 -55 4 0 -35 -46 -64 -76 -6 -7 -12 -18 -12
-24 0 -6 -4 -8 -10 -5 -5 3 -10 1 -10 -5 0 -9 -49 -79 -70 -100 -3 -3 -25 -34
-50 -70 -24 -36 -48 -66 -52 -68 -4 -2 -8 -8 -8 -13 0 -5 -20 -40 -45 -79 -25
-39 -45 -75 -45 -80 0 -6 -4 -10 -10 -10 -5 0 -10 -6 -10 -14 0 -8 -6 -21 -13
-28 -7 -7 -30 -48 -52 -91 -22 -44 -47 -93 -56 -110 -10 -18 -15 -35 -12 -39
2 -5 0 -8 -5 -8 -8 0 -17 -17 -37 -70 -8 -23 -27 -69 -35 -85 -33 -71 -91
-235 -83 -235 3 0 -2 -10 -13 -22 -12 -13 -13 -18 -4 -13 12 7 13 6 4 -6 -6
-8 -16 -32 -22 -54 -6 -22 -15 -51 -19 -65 -4 -14 -7 -27 -8 -30 -5 -26 -28
-118 -32 -130 -4 -8 -6 -18 -5 -21 1 -4 -3 -22 -9 -40 -5 -19 -12 -47 -14 -64
-2 -16 -6 -46 -10 -65 -4 -19 -8 -45 -8 -57 -1 -13 -4 -23 -7 -23 -3 0 -5 -15
-5 -32 1 -18 -2 -40 -6 -49 -5 -9 -3 -21 3 -27 8 -8 8 -12 2 -12 -6 0 -11 -6
-11 -12 -1 -7 -4 -62 -9 -123 -4 -60 -8 -146 -8 -190 l-1 -80 27 1 c16 1 28
-3 28 -7 0 -5 6 -6 13 -4 29 10 67 13 67 5 0 -5 6 -7 14 -4 24 9 126 10 126 1
0 -4 5 -5 11 -1 16 9 155 11 197 3 17 -4 34 -4 36 0 3 3 97 6 211 5 126 0 208
3 212 9 3 6 7 40 9 76 3 84 13 223 19 264 3 18 7 48 9 67 3 19 8 49 11 65 11
62 18 100 21 110 2 6 6 24 9 40 10 43 10 45 24 95 8 25 14 50 15 57 1 7 5 16
9 19 4 4 7 17 7 29 0 12 3 25 8 29 4 4 8 12 8 17 1 5 2 10 4 12 1 1 3 11 5 22
4 17 15 46 51 130 7 17 16 42 19 58 4 15 11 27 16 27 5 0 9 6 9 13 0 22 138
286 166 318 8 9 11 19 7 22 -3 4 -1 7 5 7 6 0 13 8 16 18 4 10 15 28 25 39 10
11 26 33 34 49 9 16 26 41 39 56 13 16 39 49 58 74 51 67 114 138 201 226 42
43 74 80 71 83 -3 3 -1 5 5 5 5 0 21 10 35 23 71 64 137 119 142 118 3 0 20
13 38 30 18 16 71 55 118 87 47 31 87 60 88 64 2 5 8 8 13 8 5 0 38 18 74 40
124 76 466 230 510 230 8 0 15 4 15 10 0 5 3 9 8 8 12 -3 86 14 97 22 6 5 26
11 46 14 20 3 48 10 62 15 14 5 44 13 68 16 24 4 46 8 49 10 3 2 24 6 46 9 22
4 51 9 64 11 34 7 116 16 166 19 22 1 46 6 52 10 7 4 12 2 12 -5 0 -8 4 -8 13
-2 15 13 365 14 373 2 3 -5 13 -5 23 1 10 5 21 6 25 2 4 -3 30 -7 59 -8 29 -2
52 -3 52 -4 0 -1 14 -3 30 -5 17 -1 49 -5 70 -10 22 -4 51 -9 65 -12 14 -2 36
-6 50 -8 14 -2 25 -5 25 -6 0 -1 9 -3 20 -4 11 -1 40 -8 65 -15 25 -7 56 -14
69 -17 13 -2 32 -8 41 -13 10 -5 20 -6 24 -3 3 3 6 1 6 -4 0 -6 8 -10 18 -8 9
1 23 -2 30 -8 6 -5 12 -6 12 -2 0 4 6 3 13 -2 6 -6 37 -18 67 -28 56 -18 114
-42 185 -75 193 -91 222 -106 279 -143 14 -10 26 -14 26 -10 0 5 5 0 11 -9 5
-10 15 -18 20 -18 12 0 133 -80 137 -92 2 -4 10 -8 18 -8 8 0 14 -4 14 -10 0
-5 5 -10 11 -10 6 0 16 -6 23 -12 7 -7 27 -24 45 -38 131 -102 269 -231 376
-355 33 -38 68 -77 78 -87 9 -10 17 -21 17 -25 0 -5 18 -28 40 -53 22 -24 40
-48 40 -53 0 -4 9 -17 20 -29 11 -12 26 -34 32 -50 7 -15 16 -28 19 -28 24 0
262 -470 262 -516 0 -8 4 -14 8 -14 6 0 20 -38 23 -62 1 -3 4 -10 9 -14 4 -4
7 -17 7 -29 0 -12 3 -25 7 -29 4 -3 8 -12 9 -19 2 -16 34 -127 41 -147 3 -8 7
-22 8 -30 1 -8 10 -51 20 -95 9 -44 18 -91 20 -105 2 -14 4 -25 5 -25 1 0 3
-22 6 -50 2 -27 7 -68 10 -90 3 -22 7 -85 10 -140 3 -55 6 -111 8 -125 l3 -25
246 0 c136 0 247 -3 247 -7 0 -4 6 -5 14 -2 23 9 226 10 226 2 0 -4 7 -5 15
-2 8 4 54 7 102 8 85 1 87 2 89 26 1 14 3 30 4 35 1 6 1 12 0 15 -1 3 -4 34
-5 70 -4 106 -23 302 -32 340 -3 14 -7 39 -9 55 -13 109 -21 158 -31 185 -3 8
-8 24 -9 35 -2 11 -9 43 -16 70 -7 28 -11 54 -10 59 2 4 -1 13 -6 20 -5 6 -12
25 -16 41 -3 17 -18 68 -32 115 -15 47 -28 92 -31 100 -2 8 -4 17 -4 20 -1 3
-5 11 -11 18 -6 6 -7 12 -2 12 5 0 4 4 -1 8 -6 4 -19 32 -29 62 -11 30 -29 75
-40 100 -11 25 -19 48 -18 53 1 4 -3 7 -8 7 -5 0 -9 3 -8 8 1 4 -6 24 -15 46
-9 21 -17 43 -17 48 0 5 -4 6 -10 3 -6 -4 -10 5 -10 19 0 14 -3 26 -8 26 -4 0
-13 15 -21 33 -8 17 -25 49 -38 69 -13 21 -23 44 -23 53 0 8 -3 15 -8 15 -4 0
-16 17 -27 38 -22 41 -57 97 -80 127 -8 10 -15 25 -15 31 0 7 -4 14 -8 16 -4
2 -32 38 -61 81 -30 42 -57 77 -62 77 -5 0 -9 6 -9 13 0 7 -12 28 -27 45 -16
17 -35 40 -43 51 -26 33 -94 115 -110 131 -8 9 -32 34 -52 57 -20 23 -39 39
-42 35 -3 -3 -6 0 -6 6 0 7 -34 45 -75 85 -41 41 -75 72 -75 71 0 -2 -17 14
-37 34 -21 20 -63 57 -93 82 -30 25 -57 47 -60 50 -3 3 -25 21 -50 40 -25 19
-46 38 -48 42 -2 5 -10 8 -18 8 -8 0 -14 4 -14 8 0 5 -16 17 -35 28 -19 10
-35 21 -35 24 0 3 -22 19 -50 35 -27 16 -50 33 -50 37 0 4 -6 8 -13 8 -7 0
-23 9 -35 20 -12 12 -22 18 -22 14 0 -4 -8 0 -17 8 -10 9 -35 25 -55 37 -21
12 -55 31 -75 42 -93 53 -264 139 -278 139 -8 0 -15 3 -15 8 0 4 -15 12 -32
18 -54 19 -103 39 -108 44 -5 5 -68 30 -85 33 -5 2 -14 5 -20 8 -5 4 -31 12
-57 20 -27 7 -48 16 -48 19 0 3 -8 6 -18 7 -26 2 -46 7 -52 13 -7 8 -205 62
-241 66 -17 2 -36 7 -42 11 -7 4 -16 8 -22 9 -28 5 -73 13 -95 19 -14 3 -40 7
-58 10 -18 2 -36 6 -40 9 -6 3 -82 14 -162 22 -14 1 -25 3 -25 4 0 0 -25 3
-55 5 -30 3 -61 7 -67 10 -7 2 -13 -1 -13 -8 0 -8 -3 -8 -9 2 -7 11 -60 14
-269 16 -144 2 -262 1 -264 0z"/>
<path d="M4802 7664 c-18 -7 -32 -10 -32 -7 0 3 -6 1 -12 -4 -7 -5 -42 -20
-78 -32 -36 -12 -74 -26 -85 -31 -11 -4 -33 -13 -50 -18 -37 -13 -165 -60
-185 -69 -8 -3 -19 -7 -25 -9 -5 -1 -71 -26 -145 -54 -74 -29 -139 -53 -145
-54 -5 -1 -19 -7 -30 -13 -11 -6 -23 -12 -27 -12 -15 -3 -44 -14 -86 -32 -24
-11 -47 -17 -52 -14 -6 4 -10 1 -10 -6 0 -7 -3 -9 -7 -6 -3 4 -11 3 -17 -2 -6
-4 -36 -17 -66 -27 -30 -10 -58 -23 -62 -29 -4 -5 -8 -7 -8 -3 0 4 -18 1 -40
-7 -22 -8 -40 -12 -40 -8 0 3 -6 0 -14 -6 -8 -7 -26 -10 -41 -7 -29 5 -78 -15
-92 -37 -10 -16 -93 -56 -134 -64 -16 -3 -29 -10 -29 -16 0 -6 -3 -7 -6 -4 -4
3 -16 1 -28 -5 -11 -7 -28 -13 -36 -14 -8 -2 -23 -7 -35 -13 -24 -11 -156 -62
-170 -66 -13 -3 -42 -14 -80 -30 -16 -7 -41 -16 -55 -20 -14 -4 -38 -13 -55
-20 -16 -7 -68 -27 -115 -45 -47 -17 -97 -36 -112 -42 -24 -9 -27 -14 -21 -36
3 -15 6 -32 6 -39 0 -13 6 -14 169 -17 49 0 88 -5 88 -10 0 -5 6 -3 13 3 8 6
16 9 19 6 4 -5 185 -13 431 -19 59 -1 110 -6 114 -10 4 -4 9 -91 10 -193 1
-102 4 -188 7 -191 3 -3 0 -12 -6 -20 -7 -8 -13 -21 -14 -29 -2 -8 -11 -21
-22 -29 -20 -14 -24 -52 -24 -246 -1 -62 -4 -86 -12 -81 -8 5 -8 3 0 -8 9 -11
12 -162 4 -179 -1 -3 -1 -9 0 -15 6 -30 6 -55 0 -55 -8 0 -4 -56 5 -70 3 -5 2
-11 -3 -14 -9 -6 -8 -59 3 -75 3 -6 2 -11 -3 -11 -12 0 -10 -73 3 -82 7 -5 7
-8 0 -8 -6 0 -11 -53 -12 -137 -3 -223 -11 -434 -17 -440 -3 -3 -1 -14 5 -24
6 -12 6 -19 0 -19 -5 0 -10 -12 -10 -27 0 -25 -7 -68 -11 -68 -1 0 -3 -10 -4
-22 -2 -13 3 -23 9 -23 15 0 39 45 31 58 -3 6 -2 13 4 17 5 3 10 -1 10 -10 0
-9 6 -15 13 -12 6 2 11 10 9 16 -1 6 2 11 7 11 4 0 11 -19 14 -42 9 -66 13
-79 23 -86 6 -4 13 -15 17 -25 4 -10 11 -16 16 -12 11 6 9 40 -4 68 -4 10 -5
21 -1 24 3 4 6 -1 6 -11 0 -9 5 -14 10 -11 6 4 8 11 5 16 -4 5 -1 17 5 26 9
16 10 15 5 -4 -5 -17 -3 -22 8 -17 18 7 28 39 16 51 -4 4 -4 15 1 23 8 13 10
12 10 -2 0 -16 11 -23 33 -19 4 0 7 -8 7 -20 0 -14 5 -19 14 -16 10 4 14 0 11
-13 -2 -11 1 -23 7 -26 7 -4 8 -2 4 4 -4 7 -3 12 3 12 7 0 7 8 1 24 -5 13 -6
26 -4 29 3 3 1 15 -6 26 -8 15 -8 21 0 21 6 0 8 5 3 13 -11 18 -13 32 -18 152
-3 87 -16 668 -17 785 -1 55 0 56 45 52 23 -2 49 -6 57 -8 8 -3 42 -7 75 -10
33 -2 76 -6 95 -9 19 -3 53 -7 75 -10 22 -2 58 -6 80 -9 22 -3 67 -8 100 -12
33 -4 63 -8 67 -10 6 -4 20 26 24 51 1 6 3 12 4 15 1 3 3 16 5 30 2 14 10 52
19 84 9 33 18 69 21 80 2 12 4 22 6 24 1 1 3 7 4 12 1 6 4 12 5 15 1 3 4 8 5
13 1 4 8 23 16 42 7 19 12 38 11 43 -1 4 3 7 8 7 5 0 9 3 8 8 -5 15 73 157 95
173 5 3 8 10 7 13 -4 16 113 146 131 146 7 0 10 3 6 6 -10 10 147 124 171 124
7 0 12 4 12 10 0 5 3 9 8 8 4 -1 25 6 47 16 22 10 47 19 55 21 8 3 40 11 70
19 80 21 132 26 250 26 151 -2 194 -4 200 -12 3 -4 21 -8 39 -10 18 -1 35 -6
37 -10 3 -4 13 -8 23 -8 10 0 36 -8 57 -17 22 -9 41 -17 44 -18 11 -3 65 -30
70 -35 3 -3 17 -11 32 -19 15 -8 37 -22 47 -33 11 -10 23 -18 26 -18 14 0 145
-125 145 -139 0 -5 9 -13 20 -16 11 -4 18 -11 15 -16 -4 -5 -2 -9 2 -9 5 0 19
-18 33 -40 14 -22 28 -40 33 -40 4 0 6 -4 3 -9 -4 -5 -2 -11 2 -13 16 -6 70
-131 90 -206 15 -55 20 -106 20 -205 0 -73 -4 -137 -10 -144 -5 -6 -8 -17 -7
-25 1 -7 -1 -26 -6 -43 -12 -43 -96 -205 -106 -205 -5 0 -9 -5 -9 -10 0 -6 -5
-16 -10 -23 -47 -56 -149 -167 -154 -167 -1 0 -42 -38 -89 -85 -48 -47 -87
-84 -87 -81 0 4 -17 -12 -169 -156 -39 -37 -71 -64 -71 -60 0 4 -8 -5 -18 -21
-10 -15 -22 -24 -25 -20 -4 3 -7 -1 -7 -11 0 -9 -3 -15 -7 -13 -5 2 -16 -4
-25 -15 -10 -10 -16 -18 -15 -18 2 0 -19 -24 -47 -53 -28 -29 -69 -75 -91
-102 -22 -28 -44 -53 -50 -57 -5 -4 -6 -8 -1 -8 5 0 0 -10 -11 -22 -40 -45
-142 -235 -150 -279 -1 -9 -7 -27 -12 -40 -5 -13 -10 -27 -11 -31 -1 -4 -8
-28 -16 -54 -7 -25 -11 -50 -8 -55 3 -5 1 -9 -5 -9 -5 0 -9 -8 -9 -17 1 -17
-5 -52 -18 -103 -3 -14 -7 -201 -9 -417 -2 -357 -1 -393 14 -397 9 -2 139 -5
289 -5 l272 -1 1 42 c2 125 9 288 14 322 6 43 62 156 77 156 5 0 6 5 3 10 -3
6 -1 10 4 10 6 0 11 7 11 15 0 8 7 15 15 15 8 0 14 3 12 8 -7 24 106 96 115
72 2 -4 19 -10 38 -11 19 -2 37 -6 40 -9 3 -4 39 -14 80 -23 41 -10 84 -20 95
-22 84 -20 168 -31 210 -28 69 4 75 5 75 14 0 3 8 9 18 11 31 8 37 13 67 48
16 19 32 37 36 40 5 5 32 68 35 80 0 3 4 16 7 30 4 14 9 54 11 90 2 36 5 67 6
70 1 3 2 9 1 13 -1 4 4 14 11 21 26 25 51 33 87 26 41 -7 75 1 77 19 1 6 3 12
4 14 7 6 5 97 -2 97 -4 0 -8 6 -8 14 0 7 -7 19 -15 26 -21 17 -13 24 45 40 34
9 58 23 71 41 22 31 23 47 7 86 -6 15 -11 31 -10 36 1 4 -2 7 -7 7 -13 0 -19
46 -9 64 5 9 23 23 40 32 29 15 44 19 98 26 14 2 28 8 32 13 5 6 8 5 8 -2 0
-9 7 -10 28 -2 15 6 27 9 27 8 0 -1 10 1 23 5 12 4 22 12 22 17 0 5 7 9 16 9
8 0 12 5 9 10 -4 6 -2 17 5 25 11 14 10 59 -3 71 -4 4 -7 15 -7 25 0 9 -4 19
-9 21 -5 2 -17 21 -28 43 -36 72 -68 130 -74 135 -4 3 -17 25 -29 50 -12 25
-25 47 -29 50 -3 3 -24 39 -45 80 -22 41 -44 78 -50 82 -6 4 -8 8 -3 8 4 0 1
13 -7 29 -9 16 -12 31 -9 35 4 3 2 6 -4 6 -6 0 -10 11 -9 25 0 14 5 25 9 25 5
0 6 4 2 9 -3 6 3 14 12 20 10 6 15 11 11 11 -4 0 9 16 27 36 20 21 38 52 42
73 9 48 8 167 -2 266 -4 44 -9 94 -11 110 -1 17 -3 30 -4 30 -1 0 -4 20 -5 45
-5 65 -13 118 -27 175 -7 28 -11 54 -10 59 2 4 -3 14 -9 22 -6 8 -9 14 -6 14
8 0 -52 172 -64 185 -5 5 -9 17 -9 27 0 10 -4 18 -8 18 -5 0 -14 16 -22 35 -8
19 -17 35 -21 35 -4 0 -9 8 -13 18 -6 18 -24 48 -41 68 -5 6 -19 24 -30 40
-23 32 -62 80 -88 109 -21 23 -47 81 -66 145 -7 25 -17 54 -22 65 -4 11 -10
35 -13 53 -3 26 -1 32 15 32 10 0 19 4 19 8 0 4 10 8 23 9 12 1 65 13 117 28
52 15 103 29 113 31 9 2 27 7 40 10 12 3 27 6 32 7 6 2 16 6 23 10 6 5 12 6
12 2 0 -3 8 -1 19 4 19 11 73 23 104 25 9 0 17 4 17 8 0 4 3 7 8 6 8 -1 23 2
172 43 58 16 114 31 125 34 11 2 43 10 70 18 47 12 50 15 53 49 4 41 -5 47
-83 55 -27 3 -51 9 -53 14 -2 5 -12 5 -21 -1 -10 -5 -21 -6 -25 -3 -3 3 -18 8
-33 9 -16 2 -46 6 -68 9 -22 3 -56 8 -75 11 -19 2 -48 6 -65 8 -16 3 -50 7
-75 11 -67 9 -112 15 -140 19 -14 2 -47 7 -75 10 -27 4 -66 9 -85 12 -19 3
-53 7 -75 9 -22 2 -56 7 -75 9 -39 6 -90 13 -152 22 -72 9 -87 12 -97 18 -5 4
-13 2 -16 -4 -5 -8 -11 -7 -21 1 -8 6 -14 8 -14 4 0 -4 -6 -2 -13 4 -8 6 -16
8 -20 5 -3 -3 -39 0 -81 6 -42 6 -88 13 -103 15 -16 2 -28 4 -28 5 0 1 -22 3
-50 6 -61 6 -110 12 -110 14 0 1 -17 3 -38 5 -21 2 -55 6 -75 10 -20 4 -50 9
-67 10 -16 1 -52 6 -80 10 -27 4 -69 8 -92 9 -24 0 -43 4 -43 9 0 4 -3 6 -7 6
-5 -1 -10 -1 -13 1 -3 1 -30 3 -60 5 -30 2 -71 6 -90 10 -19 3 -57 8 -85 11
-27 3 -59 7 -70 9 -12 1 -35 -3 -53 -11z m-1149 -948 c16 2 17 -6 12 -109 -3
-62 -8 -141 -10 -177 -2 -36 -7 -105 -10 -155 -3 -49 -8 -103 -11 -120 -3 -16
-6 -41 -8 -55 -2 -14 -9 -37 -15 -52 -6 -16 -7 -28 -3 -28 4 0 0 -5 -8 -10 -8
-5 -10 -10 -4 -10 8 0 8 -11 -2 -40 -7 -21 -15 -53 -16 -70 -4 -50 -14 -43
-13 8 1 26 -4 50 -9 54 -7 5 -7 8 1 8 9 0 10 7 3 25 -5 13 -6 26 -2 29 4 2 6
22 4 43 -1 21 -2 58 -2 83 1 62 1 62 -3 90 -1 14 -8 24 -15 22 -23 -5 -44 70
-48 168 -6 184 -6 279 1 290 5 8 27 10 61 7 31 -3 57 -1 60 5 4 6 9 7 13 0 3
-5 14 -8 24 -6z m-276 -1936 c-1 -22 -5 -40 -9 -40 -4 0 -5 12 -4 28 2 15 4
33 5 40 0 6 3 12 5 12 2 0 3 -18 3 -40z m189 -19 c-2 -45 -12 -46 -12 -1 0 21
3 37 6 35 4 -3 7 -18 6 -34z m-121 -101 c3 -5 1 -10 -4 -10 -6 0 -11 5 -11 10
0 6 2 10 4 10 3 0 8 -4 11 -10z"/>
<path d="M3492 4637 c-7 -8 -7 -18 -2 -27 9 -14 12 -7 9 16 0 4 5 11 13 15 8
5 9 9 2 9 -6 0 -16 -6 -22 -13z"/>
<path d="M5036 2683 c-26 -8 -58 -23 -69 -34 -11 -10 -26 -19 -32 -19 -15 0
-85 -108 -85 -131 0 -11 -4 -19 -8 -19 -5 0 -8 -30 -7 -67 2 -65 21 -138 45
-165 43 -51 62 -69 102 -91 46 -25 102 -39 148 -37 34 2 74 8 78 10 1 1 5 3
10 4 23 5 81 43 109 72 32 33 80 114 67 114 -4 0 -2 6 3 13 14 18 16 98 4 143
-6 22 -11 44 -12 49 -2 13 -59 85 -84 107 -11 9 -31 22 -45 29 -14 6 -33 15
-43 21 -31 16 -130 17 -181 1z"/>
<path d="M4448 1737 c-1 -28 -2 -69 0 -90 l3 -38 157 3 157 3 0 87 1 86 -157
1 -157 1 -4 -53z"/>
<path d="M1429 1708 c-3 -188 1 -861 5 -865 7 -7 305 -7 312 0 3 3 6 153 6
334 0 238 3 322 10 306 6 -13 15 -23 20 -23 4 0 8 -4 8 -10 0 -8 68 -121 88
-145 4 -5 11 -17 14 -25 4 -8 42 -71 85 -140 l78 -125 110 0 109 0 48 75 c26
41 52 84 58 95 5 11 29 49 51 85 23 36 64 101 90 144 27 44 50 81 52 83 2 1 3
-146 3 -327 -1 -323 -1 -330 19 -331 26 -1 276 -1 293 0 9 1 12 99 12 456 l0
455 -212 0 c-117 0 -218 -4 -224 -8 -9 -6 -44 -61 -94 -150 -8 -14 -18 -31
-23 -37 -18 -24 -87 -136 -87 -141 0 -3 -5 -10 -10 -17 -6 -7 -27 -38 -46 -70
-20 -31 -39 -55 -44 -52 -4 2 -27 37 -51 77 -24 40 -46 75 -49 78 -7 7 -28 41
-40 65 -5 11 -30 52 -55 90 -25 39 -57 91 -72 117 l-27 47 -218 1 -218 0 -1
-42z"/>
<path d="M8312 1738 c-7 -7 -12 -18 -12 -25 0 -7 -4 -13 -10 -13 -5 0 -9 -3
-8 -7 2 -8 -18 -48 -71 -143 -17 -30 -36 -67 -42 -82 -6 -16 -15 -28 -20 -28
-5 0 -9 -7 -9 -16 0 -9 -8 -28 -18 -42 -10 -15 -29 -49 -42 -77 -14 -27 -28
-51 -32 -53 -5 -2 -8 -8 -8 -12 0 -5 -26 -58 -58 -117 -33 -59 -80 -147 -106
-195 l-47 -88 28 -1 c131 -4 307 1 315 9 6 6 27 43 48 84 l37 73 259 1 c142 0
264 -3 270 -8 6 -4 28 -42 49 -83 28 -57 42 -75 59 -76 23 -1 273 0 294 0 16
1 15 31 -1 56 -8 11 -40 70 -72 130 -32 61 -71 135 -88 165 -16 30 -41 78 -56
105 -14 28 -30 53 -36 57 -5 4 -6 8 -1 8 5 0 4 6 -2 13 -6 7 -24 37 -40 67
-16 30 -46 87 -67 125 -21 39 -52 96 -69 128 l-31 57 -200 0 c-143 0 -204 -3
-213 -12z m387 -558 c1 -4 -78 -6 -174 -6 -128 0 -175 3 -175 11 0 7 18 44 39
83 22 39 43 82 48 94 4 13 26 57 47 98 l39 75 88 -175 c48 -96 88 -177 88
-180z"/>
<path d="M3488 1535 c-2 -1 -37 -5 -78 -9 -73 -6 -115 -12 -155 -21 -18 -4
-20 -12 -20 -82 0 -63 3 -78 15 -76 18 2 55 10 78 17 20 6 76 17 117 22 36 5
220 5 255 1 74 -9 132 -48 128 -85 l-3 -25 -170 -3 c-155 -2 -210 -5 -273 -19
-12 -3 -32 -7 -44 -10 -80 -17 -162 -80 -179 -137 -13 -45 -11 -102 3 -135 28
-63 113 -120 213 -141 39 -8 221 -7 265 2 40 8 121 47 157 76 14 11 28 20 32
20 3 0 5 -20 3 -45 -5 -52 -25 -47 176 -47 74 0 136 3 139 6 6 6 6 423 0 446
-3 8 -8 29 -12 46 -9 40 -57 99 -104 127 -84 52 -173 69 -373 72 -92 2 -168 2
-170 0z m342 -418 c0 -50 -33 -96 -90 -124 -30 -15 -97 -29 -125 -27 -101 8
-145 35 -145 90 0 37 38 74 76 74 12 0 25 3 27 8 3 4 62 7 131 7 l126 1 0 -29z"/>
<path d="M5340 1518 c-151 -32 -260 -102 -312 -200 -19 -36 -23 -58 -23 -138
1 -104 18 -152 73 -209 30 -30 98 -83 106 -82 3 0 23 -7 43 -16 21 -8 45 -17
53 -18 8 -2 15 -4 15 -5 0 -1 7 -3 15 -5 8 -2 29 -6 45 -10 48 -11 276 -14
330 -5 95 16 112 20 155 35 156 55 241 159 245 303 2 78 -12 136 -47 185 -21
30 -66 77 -73 77 -2 0 -21 11 -41 25 -37 25 -150 63 -214 72 -97 14 -288 9
-370 -9z m344 -173 c48 -32 64 -69 70 -166 8 -124 -74 -202 -210 -201 -121 1
-197 58 -209 155 -13 104 8 166 72 211 71 50 201 50 277 1z"/>
<path d="M6870 1532 c-70 -10 -190 -68 -210 -100 -14 -25 -26 -1 -23 48 1 22
-1 40 -5 41 -10 1 -284 1 -300 0 -9 -1 -12 -30 -12 -108 -1 -60 -1 -115 -1
-123 0 -8 0 -37 0 -65 0 -27 0 -57 0 -65 0 -8 0 -51 0 -95 0 -44 0 -87 0 -95
-1 -107 3 -130 25 -131 94 -3 276 0 284 5 5 3 10 78 10 173 0 93 3 179 6 191
14 64 84 132 144 142 44 7 204 4 239 -4 l31 -8 0 95 c-1 95 -1 96 -27 101 -28
5 -120 4 -161 -2z"/>
<path d="M4450 1470 c-1 -30 -1 -198 -1 -373 l-1 -317 -30 -30 c-16 -17 -39
-30 -51 -31 -12 -1 -38 -2 -57 -4 -19 -2 -44 -3 -55 -4 -19 -1 -20 -7 -19 -63
1 -35 2 -67 3 -73 1 -11 249 -3 310 10 43 9 120 51 149 82 20 22 58 88 61 106
1 4 2 8 2 10 1 1 2 167 3 370 2 255 -1 367 -8 368 -6 0 -77 1 -159 2 l-147 2
0 -55z"/>
<path d="M7172 1281 c-5 -3 -9 -43 -9 -88 l0 -83 280 0 279 0 -4 30 c-3 17 -1
33 4 36 5 3 6 9 4 13 -3 4 -6 28 -7 52 l-3 46 -267 0 c-147 0 -272 -3 -277 -6z"/>
</g>
</svg>
